<mxfile host="65bd71144e">
    <diagram id="ExdccTZqctQwAvQB16s_" name="Page-1">
        <mxGraphModel dx="1724" dy="1323" grid="1" gridSize="10" guides="1" tooltips="1" connect="1" arrows="1" fold="1" page="0" pageScale="1" pageWidth="827" pageHeight="1169" math="0" shadow="0">
            <root>
                <mxCell id="0"/>
                <mxCell id="1" parent="0"/>
                <mxCell id="2M91R3iAnrZrVvDSjcHK-1" value="Discv5" style="rounded=0;whiteSpace=wrap;html=1;" parent="1" vertex="1">
                    <mxGeometry x="-80" y="-40" width="160" height="41" as="geometry"/>
                </mxCell>
                <mxCell id="2M91R3iAnrZrVvDSjcHK-28" value="" style="endArrow=none;dashed=1;html=1;fontSize=12;entryX=0.5;entryY=1;entryDx=0;entryDy=0;" parent="1" target="2M91R3iAnrZrVvDSjcHK-1" edge="1">
                    <mxGeometry width="50" height="50" relative="1" as="geometry">
                        <mxPoint y="1230" as="sourcePoint"/>
                        <mxPoint x="80" y="230" as="targetPoint"/>
                    </mxGeometry>
                </mxCell>
                <mxCell id="11" value="" style="endArrow=classic;html=1;" edge="1" parent="1">
                    <mxGeometry width="50" height="50" relative="1" as="geometry">
                        <mxPoint x="-160" y="80" as="sourcePoint"/>
                        <mxPoint y="80" as="targetPoint"/>
                    </mxGeometry>
                </mxCell>
                <mxCell id="12" value="find_node()" style="edgeLabel;html=1;align=center;verticalAlign=middle;resizable=0;points=[];" vertex="1" connectable="0" parent="11">
                    <mxGeometry x="-0.5875" y="-1" relative="1" as="geometry">
                        <mxPoint y="-11" as="offset"/>
                    </mxGeometry>
                </mxCell>
                <mxCell id="13" value="Service" style="rounded=0;whiteSpace=wrap;html=1;" vertex="1" parent="1">
                    <mxGeometry x="120" y="-40" width="160" height="41" as="geometry"/>
                </mxCell>
                <mxCell id="14" value="" style="endArrow=none;dashed=1;html=1;fontSize=12;entryX=0.5;entryY=1;entryDx=0;entryDy=0;" edge="1" parent="1" target="13">
                    <mxGeometry width="50" height="50" relative="1" as="geometry">
                        <mxPoint x="200" y="1290" as="sourcePoint"/>
                        <mxPoint x="10" y="11" as="targetPoint"/>
                    </mxGeometry>
                </mxCell>
                <mxCell id="15" value="" style="endArrow=classic;html=1;entryX=0.5;entryY=0;entryDx=0;entryDy=0;" edge="1" parent="1" target="17">
                    <mxGeometry width="50" height="50" relative="1" as="geometry">
                        <mxPoint x="200" y="30" as="sourcePoint"/>
                        <mxPoint x="360" y="30" as="targetPoint"/>
                        <Array as="points">
                            <mxPoint x="440" y="30"/>
                        </Array>
                    </mxGeometry>
                </mxCell>
                <mxCell id="16" value="spawn()" style="edgeLabel;html=1;align=center;verticalAlign=middle;resizable=0;points=[];" vertex="1" connectable="0" parent="15">
                    <mxGeometry x="-0.5875" y="-1" relative="1" as="geometry">
                        <mxPoint y="-11" as="offset"/>
                    </mxGeometry>
                </mxCell>
                <mxCell id="17" value="Service::start()" style="rounded=0;whiteSpace=wrap;html=1;" vertex="1" parent="1">
                    <mxGeometry x="360" y="60" width="160" height="41" as="geometry"/>
                </mxCell>
                <mxCell id="18" value="" style="endArrow=none;dashed=1;html=1;fontSize=12;entryX=0.5;entryY=1;entryDx=0;entryDy=0;startArrow=none;" edge="1" parent="1" source="50" target="17">
                    <mxGeometry width="50" height="50" relative="1" as="geometry">
                        <mxPoint x="440" y="1240" as="sourcePoint"/>
                        <mxPoint x="210" y="11" as="targetPoint"/>
                    </mxGeometry>
                </mxCell>
                <mxCell id="19" value="" style="endArrow=classic;html=1;" edge="1" parent="1">
                    <mxGeometry width="50" height="50" relative="1" as="geometry">
                        <mxPoint y="120" as="sourcePoint"/>
                        <mxPoint x="200" y="120" as="targetPoint"/>
                    </mxGeometry>
                </mxCell>
                <mxCell id="20" value="send ServiceRequest::StartQuery" style="edgeLabel;html=1;align=center;verticalAlign=middle;resizable=0;points=[];" vertex="1" connectable="0" parent="19">
                    <mxGeometry x="-0.5875" y="-1" relative="1" as="geometry">
                        <mxPoint x="46" y="-11" as="offset"/>
                    </mxGeometry>
                </mxCell>
                <mxCell id="22" value="start_findode_query()&lt;br&gt;&lt;br&gt;・k-bucketsからターゲットに近いピアを取得する&lt;br&gt;→ known_closest_peers" style="rounded=0;whiteSpace=wrap;html=1;" vertex="1" parent="1">
                    <mxGeometry x="120" y="160" width="160" height="210" as="geometry"/>
                </mxCell>
                <mxCell id="23" value="KBucketsTable" style="rounded=0;whiteSpace=wrap;html=1;" vertex="1" parent="1">
                    <mxGeometry x="560" y="-40" width="160" height="41" as="geometry"/>
                </mxCell>
                <mxCell id="24" value="" style="endArrow=none;dashed=1;html=1;fontSize=12;entryX=0.5;entryY=1;entryDx=0;entryDy=0;" edge="1" parent="1" target="23">
                    <mxGeometry width="50" height="50" relative="1" as="geometry">
                        <mxPoint x="640" y="3040" as="sourcePoint"/>
                        <mxPoint x="450" y="52" as="targetPoint"/>
                    </mxGeometry>
                </mxCell>
                <mxCell id="25" value="" style="endArrow=classic;html=1;" edge="1" parent="1">
                    <mxGeometry width="50" height="50" relative="1" as="geometry">
                        <mxPoint x="280" y="200" as="sourcePoint"/>
                        <mxPoint x="630" y="200" as="targetPoint"/>
                    </mxGeometry>
                </mxCell>
                <mxCell id="26" value="closest_values()" style="edgeLabel;html=1;align=center;verticalAlign=middle;resizable=0;points=[];" vertex="1" connectable="0" parent="25">
                    <mxGeometry x="-0.5875" y="-1" relative="1" as="geometry">
                        <mxPoint x="-22" y="-11" as="offset"/>
                    </mxGeometry>
                </mxCell>
                <mxCell id="27" value="QueryPool" style="rounded=0;whiteSpace=wrap;html=1;" vertex="1" parent="1">
                    <mxGeometry x="760" y="-40" width="160" height="41" as="geometry"/>
                </mxCell>
                <mxCell id="28" value="" style="endArrow=classic;html=1;" edge="1" parent="1">
                    <mxGeometry width="50" height="50" relative="1" as="geometry">
                        <mxPoint x="280" y="360" as="sourcePoint"/>
                        <mxPoint x="830" y="360" as="targetPoint"/>
                    </mxGeometry>
                </mxCell>
                <mxCell id="29" value="add_findode_query()" style="edgeLabel;html=1;align=center;verticalAlign=middle;resizable=0;points=[];" vertex="1" connectable="0" parent="28">
                    <mxGeometry x="-0.5875" y="-1" relative="1" as="geometry">
                        <mxPoint x="-53" y="-11" as="offset"/>
                    </mxGeometry>
                </mxCell>
                <mxCell id="30" value="" style="endArrow=none;dashed=1;html=1;fontSize=12;entryX=0.5;entryY=1;entryDx=0;entryDy=0;" edge="1" parent="1" target="27">
                    <mxGeometry width="50" height="50" relative="1" as="geometry">
                        <mxPoint x="840" y="2600" as="sourcePoint"/>
                        <mxPoint x="650" y="11" as="targetPoint"/>
                    </mxGeometry>
                </mxCell>
                <mxCell id="31" value="self.queries に&lt;br&gt;Query を追加する" style="rounded=0;whiteSpace=wrap;html=1;" vertex="1" parent="1">
                    <mxGeometry x="770" y="380" width="160" height="60" as="geometry"/>
                </mxCell>
                <mxCell id="32" value="query_event_poll()&lt;br&gt;&lt;br&gt;・QueryPoolの処理を進める&lt;br&gt;&lt;br&gt;・QueryPoolから返ってきた QueryPoolState を&lt;br&gt;QueryEvent に変える&lt;br&gt;&lt;br&gt;&lt;br&gt;・QueryPoolState::Waiting&lt;br&gt;↓&lt;br&gt;QueryEvent::Waiting" style="rounded=0;whiteSpace=wrap;html=1;" vertex="1" parent="1">
                    <mxGeometry x="320" y="440" width="260" height="360" as="geometry"/>
                </mxCell>
                <mxCell id="33" value="" style="endArrow=classic;html=1;" edge="1" parent="1">
                    <mxGeometry width="50" height="50" relative="1" as="geometry">
                        <mxPoint x="580" y="480" as="sourcePoint"/>
                        <mxPoint x="840" y="480" as="targetPoint"/>
                    </mxGeometry>
                </mxCell>
                <mxCell id="34" value="poll()" style="edgeLabel;html=1;align=center;verticalAlign=middle;resizable=0;points=[];" vertex="1" connectable="0" parent="33">
                    <mxGeometry x="-0.5875" y="-1" relative="1" as="geometry">
                        <mxPoint x="-32" y="-11" as="offset"/>
                    </mxGeometry>
                </mxCell>
                <mxCell id="35" value="Query" style="rounded=0;whiteSpace=wrap;html=1;" vertex="1" parent="1">
                    <mxGeometry x="960" y="-40" width="80" height="41" as="geometry"/>
                </mxCell>
                <mxCell id="36" value="QueryPeerIter::FindNode" style="rounded=0;whiteSpace=wrap;html=1;" vertex="1" parent="1">
                    <mxGeometry x="1080" y="-40" width="160" height="41" as="geometry"/>
                </mxCell>
                <mxCell id="37" value="" style="endArrow=none;dashed=1;html=1;fontSize=12;entryX=0.5;entryY=1;entryDx=0;entryDy=0;" edge="1" parent="1" target="35">
                    <mxGeometry width="50" height="50" relative="1" as="geometry">
                        <mxPoint x="1000" y="2570" as="sourcePoint"/>
                        <mxPoint x="850" y="11" as="targetPoint"/>
                    </mxGeometry>
                </mxCell>
                <mxCell id="38" value="" style="endArrow=none;dashed=1;html=1;fontSize=12;entryX=0.5;entryY=1;entryDx=0;entryDy=0;startArrow=none;" edge="1" parent="1" source="96" target="36">
                    <mxGeometry width="50" height="50" relative="1" as="geometry">
                        <mxPoint x="1160" y="2520" as="sourcePoint"/>
                        <mxPoint x="1010" y="11" as="targetPoint"/>
                    </mxGeometry>
                </mxCell>
                <mxCell id="39" value="" style="endArrow=classic;html=1;" edge="1" parent="1">
                    <mxGeometry width="50" height="50" relative="1" as="geometry">
                        <mxPoint x="840" y="520" as="sourcePoint"/>
                        <mxPoint x="1000" y="520" as="targetPoint"/>
                    </mxGeometry>
                </mxCell>
                <mxCell id="40" value="next()" style="edgeLabel;html=1;align=center;verticalAlign=middle;resizable=0;points=[];" vertex="1" connectable="0" parent="39">
                    <mxGeometry x="-0.5875" y="-1" relative="1" as="geometry">
                        <mxPoint x="-13" y="-11" as="offset"/>
                    </mxGeometry>
                </mxCell>
                <mxCell id="41" value="" style="endArrow=classic;html=1;" edge="1" parent="1">
                    <mxGeometry width="50" height="50" relative="1" as="geometry">
                        <mxPoint x="1000" y="560" as="sourcePoint"/>
                        <mxPoint x="1160" y="560" as="targetPoint"/>
                    </mxGeometry>
                </mxCell>
                <mxCell id="42" value="next()" style="edgeLabel;html=1;align=center;verticalAlign=middle;resizable=0;points=[];" vertex="1" connectable="0" parent="41">
                    <mxGeometry x="-0.5875" y="-1" relative="1" as="geometry">
                        <mxPoint x="-13" y="-11" as="offset"/>
                    </mxGeometry>
                </mxCell>
                <mxCell id="43" value="" style="endArrow=classic;html=1;" edge="1" parent="1">
                    <mxGeometry width="50" height="50" relative="1" as="geometry">
                        <mxPoint x="1160" y="680" as="sourcePoint"/>
                        <mxPoint x="1000" y="680" as="targetPoint"/>
                    </mxGeometry>
                </mxCell>
                <mxCell id="44" value="QueryState::Waiting(NodeId)" style="edgeLabel;html=1;align=center;verticalAlign=middle;resizable=0;points=[];" vertex="1" connectable="0" parent="43">
                    <mxGeometry x="-0.5875" y="-1" relative="1" as="geometry">
                        <mxPoint x="-37" y="-11" as="offset"/>
                    </mxGeometry>
                </mxCell>
                <mxCell id="45" value="known_closes_peersの中から&lt;br&gt;最もターゲットに近いピアの&lt;br&gt;ノードIDを返す" style="rounded=0;whiteSpace=wrap;html=1;" vertex="1" parent="1">
                    <mxGeometry x="1080" y="580" width="190" height="60" as="geometry"/>
                </mxCell>
                <mxCell id="46" value="" style="endArrow=classic;html=1;" edge="1" parent="1">
                    <mxGeometry width="50" height="50" relative="1" as="geometry">
                        <mxPoint x="1000" y="720" as="sourcePoint"/>
                        <mxPoint x="840" y="720" as="targetPoint"/>
                    </mxGeometry>
                </mxCell>
                <mxCell id="47" value="(そのまま返す)" style="edgeLabel;html=1;align=center;verticalAlign=middle;resizable=0;points=[];" vertex="1" connectable="0" parent="46">
                    <mxGeometry x="-0.5875" y="-1" relative="1" as="geometry">
                        <mxPoint x="-17" y="-11" as="offset"/>
                    </mxGeometry>
                </mxCell>
                <mxCell id="48" value="" style="endArrow=classic;html=1;entryX=1.019;entryY=0.888;entryDx=0;entryDy=0;entryPerimeter=0;" edge="1" parent="1" target="32">
                    <mxGeometry width="50" height="50" relative="1" as="geometry">
                        <mxPoint x="840" y="760" as="sourcePoint"/>
                        <mxPoint x="540" y="760" as="targetPoint"/>
                    </mxGeometry>
                </mxCell>
                <mxCell id="49" value="QueryPoolState::Waiting(Query, NodeId)" style="edgeLabel;html=1;align=center;verticalAlign=middle;resizable=0;points=[];" vertex="1" connectable="0" parent="48">
                    <mxGeometry x="-0.5875" y="-1" relative="1" as="geometry">
                        <mxPoint x="-42" y="-11" as="offset"/>
                    </mxGeometry>
                </mxCell>
                <mxCell id="50" value="send_rpc_query()" style="rounded=0;whiteSpace=wrap;html=1;" vertex="1" parent="1">
                    <mxGeometry x="360" y="840" width="160" height="40" as="geometry"/>
                </mxCell>
                <mxCell id="51" value="" style="endArrow=none;dashed=1;html=1;fontSize=12;entryX=0.5;entryY=1;entryDx=0;entryDy=0;startArrow=none;" edge="1" parent="1" source="66" target="50">
                    <mxGeometry width="50" height="50" relative="1" as="geometry">
                        <mxPoint x="440" y="1630" as="sourcePoint"/>
                        <mxPoint x="440" y="101" as="targetPoint"/>
                    </mxGeometry>
                </mxCell>
                <mxCell id="52" value="send_rpc_request()&lt;br&gt;&lt;br&gt;・Handlerにリクエストを送信する&lt;br&gt;&lt;br&gt;・self.active_requestsにリクエストを追加する" style="rounded=0;whiteSpace=wrap;html=1;" vertex="1" parent="1">
                    <mxGeometry x="310" y="920" width="260" height="120" as="geometry"/>
                </mxCell>
                <mxCell id="53" value="Handler" style="rounded=0;whiteSpace=wrap;html=1;" vertex="1" parent="1">
                    <mxGeometry x="1480" y="-40" width="160" height="41" as="geometry"/>
                </mxCell>
                <mxCell id="54" value="" style="endArrow=none;dashed=1;html=1;fontSize=12;entryX=0.5;entryY=1;entryDx=0;entryDy=0;startArrow=none;" edge="1" parent="1" source="73" target="53">
                    <mxGeometry width="50" height="50" relative="1" as="geometry">
                        <mxPoint x="1560" y="2020" as="sourcePoint"/>
                        <mxPoint x="1170" y="11" as="targetPoint"/>
                    </mxGeometry>
                </mxCell>
                <mxCell id="55" value="" style="endArrow=classic;html=1;exitX=1.015;exitY=0.342;exitDx=0;exitDy=0;exitPerimeter=0;" edge="1" parent="1" source="52">
                    <mxGeometry width="50" height="50" relative="1" as="geometry">
                        <mxPoint x="620" y="970" as="sourcePoint"/>
                        <mxPoint x="1560" y="960" as="targetPoint"/>
                    </mxGeometry>
                </mxCell>
                <mxCell id="56" value="HandlerIn::Request" style="edgeLabel;html=1;align=center;verticalAlign=middle;resizable=0;points=[];" vertex="1" connectable="0" parent="55">
                    <mxGeometry x="-0.5875" y="-1" relative="1" as="geometry">
                        <mxPoint x="-114" y="-11" as="offset"/>
                    </mxGeometry>
                </mxCell>
                <mxCell id="57" value="・※ここから先の Socket とのやりとりは省略&lt;br&gt;&lt;br&gt;・リクエスト送信先ノードとハンドシェイクが行われる" style="rounded=0;whiteSpace=wrap;html=1;" vertex="1" parent="1">
                    <mxGeometry x="1440" y="1000" width="260" height="120" as="geometry"/>
                </mxCell>
                <mxCell id="58" value="handle_challenge()&lt;br&gt;&lt;br&gt;・新規セッションを作成する&lt;br&gt;&lt;br&gt;・※Authパケットを応答するがこの図では省略&lt;br&gt;&lt;br&gt;・新規セッションを開始したことをServiceに伝える" style="rounded=0;whiteSpace=wrap;html=1;" vertex="1" parent="1">
                    <mxGeometry x="1475" y="1160" width="205" height="210" as="geometry"/>
                </mxCell>
                <mxCell id="59" value="" style="endArrow=classic;html=1;exitX=1.004;exitY=0.35;exitDx=0;exitDy=0;exitPerimeter=0;" edge="1" parent="1" source="57">
                    <mxGeometry width="50" height="50" relative="1" as="geometry">
                        <mxPoint x="1730" y="1040" as="sourcePoint"/>
                        <mxPoint x="1890" y="1040" as="targetPoint"/>
                    </mxGeometry>
                </mxCell>
                <mxCell id="60" value="（省略）" style="edgeLabel;html=1;align=center;verticalAlign=middle;resizable=0;points=[];" vertex="1" connectable="0" parent="59">
                    <mxGeometry x="-0.5875" y="-1" relative="1" as="geometry">
                        <mxPoint x="-13" y="-11" as="offset"/>
                    </mxGeometry>
                </mxCell>
                <mxCell id="61" value="" style="endArrow=classic;html=1;exitX=1.01;exitY=0.562;exitDx=0;exitDy=0;exitPerimeter=0;" edge="1" parent="1" source="58">
                    <mxGeometry width="50" height="50" relative="1" as="geometry">
                        <mxPoint x="1710" y="1280" as="sourcePoint"/>
                        <mxPoint x="1870" y="1280" as="targetPoint"/>
                    </mxGeometry>
                </mxCell>
                <mxCell id="62" value="（省略）" style="edgeLabel;html=1;align=center;verticalAlign=middle;resizable=0;points=[];" vertex="1" connectable="0" parent="61">
                    <mxGeometry x="-0.5875" y="-1" relative="1" as="geometry">
                        <mxPoint x="-3" y="-11" as="offset"/>
                    </mxGeometry>
                </mxCell>
                <mxCell id="63" value="" style="endArrow=classic;html=1;exitX=0;exitY=0.75;exitDx=0;exitDy=0;" edge="1" parent="1" source="58">
                    <mxGeometry width="50" height="50" relative="1" as="geometry">
                        <mxPoint x="583.9000000000001" y="971.04" as="sourcePoint"/>
                        <mxPoint x="440" y="1318" as="targetPoint"/>
                    </mxGeometry>
                </mxCell>
                <mxCell id="64" value="HandlerOut::Established" style="edgeLabel;html=1;align=center;verticalAlign=middle;resizable=0;points=[];" vertex="1" connectable="0" parent="63">
                    <mxGeometry x="-0.5875" y="-1" relative="1" as="geometry">
                        <mxPoint x="97" y="-11" as="offset"/>
                    </mxGeometry>
                </mxCell>
                <mxCell id="65" value="inject_session_established()" style="rounded=0;whiteSpace=wrap;html=1;" vertex="1" parent="1">
                    <mxGeometry x="340" y="1360" width="200" height="40" as="geometry"/>
                </mxCell>
                <mxCell id="67" value="" style="endArrow=classic;html=1;exitX=1.015;exitY=0.338;exitDx=0;exitDy=0;exitPerimeter=0;" edge="1" parent="1" source="66">
                    <mxGeometry width="50" height="50" relative="1" as="geometry">
                        <mxPoint x="600" y="1520" as="sourcePoint"/>
                        <mxPoint x="640" y="1481" as="targetPoint"/>
                    </mxGeometry>
                </mxCell>
                <mxCell id="68" value="insert_or_update()" style="edgeLabel;html=1;align=center;verticalAlign=middle;resizable=0;points=[];fontColor=#80FF00;" vertex="1" connectable="0" parent="67">
                    <mxGeometry x="-0.5875" y="-1" relative="1" as="geometry">
                        <mxPoint x="27" y="-11" as="offset"/>
                    </mxGeometry>
                </mxCell>
                <mxCell id="66" value="connection_updated()&lt;br&gt;&lt;br&gt;k-bucketsに&lt;br&gt;セッションを開始したノードを&lt;br&gt;追加する" style="rounded=0;whiteSpace=wrap;html=1;fontColor=#80FF00;" vertex="1" parent="1">
                    <mxGeometry x="345" y="1440" width="190" height="120" as="geometry"/>
                </mxCell>
                <mxCell id="69" value="" style="endArrow=none;dashed=1;html=1;fontSize=12;entryX=0.5;entryY=1;entryDx=0;entryDy=0;" edge="1" parent="1" target="66">
                    <mxGeometry width="50" height="50" relative="1" as="geometry">
                        <mxPoint x="440" y="3070" as="sourcePoint"/>
                        <mxPoint x="440" y="880" as="targetPoint"/>
                    </mxGeometry>
                </mxCell>
                <mxCell id="70" value="known_closest_peers として&lt;br&gt;予め k-buckets から取得していたノードのステータスが&lt;br&gt;Connected になる&lt;br&gt;&lt;br&gt;例：Discv5::add_enr() で追加したノードは、&lt;br&gt;Disconnectedステータスで k-buckets に追加されるので&lt;br&gt;このタイミングで Connected になる" style="shape=note;whiteSpace=wrap;html=1;backgroundOutline=1;darkOpacity=0.05;fontColor=#80FF00;" vertex="1" parent="1">
                    <mxGeometry x="-100" y="1410" width="430" height="150" as="geometry"/>
                </mxCell>
                <mxCell id="71" value="" style="endArrow=classic;html=1;" edge="1" parent="1">
                    <mxGeometry width="50" height="50" relative="1" as="geometry">
                        <mxPoint x="1880" y="1140" as="sourcePoint"/>
                        <mxPoint x="1560" y="1140" as="targetPoint"/>
                    </mxGeometry>
                </mxCell>
                <mxCell id="72" value="（省略）WHOAREYOUを受信する" style="edgeLabel;html=1;align=center;verticalAlign=middle;resizable=0;points=[];" vertex="1" connectable="0" parent="71">
                    <mxGeometry x="-0.5875" y="-1" relative="1" as="geometry">
                        <mxPoint x="26" y="-11" as="offset"/>
                    </mxGeometry>
                </mxCell>
                <mxCell id="74" value="" style="endArrow=classic;html=1;" edge="1" parent="1">
                    <mxGeometry width="50" height="50" relative="1" as="geometry">
                        <mxPoint x="1880" y="1560" as="sourcePoint"/>
                        <mxPoint x="1560" y="1560" as="targetPoint"/>
                    </mxGeometry>
                </mxCell>
                <mxCell id="75" value="（省略）NODESレスポンスを受信する" style="edgeLabel;html=1;align=center;verticalAlign=middle;resizable=0;points=[];" vertex="1" connectable="0" parent="74">
                    <mxGeometry x="-0.5875" y="-1" relative="1" as="geometry">
                        <mxPoint x="26" y="-11" as="offset"/>
                    </mxGeometry>
                </mxCell>
                <mxCell id="76" value="" style="endArrow=classic;html=1;exitX=0;exitY=0.5;exitDx=0;exitDy=0;" edge="1" parent="1" source="73">
                    <mxGeometry width="50" height="50" relative="1" as="geometry">
                        <mxPoint x="1285" y="1327.5" as="sourcePoint"/>
                        <mxPoint x="440" y="1620" as="targetPoint"/>
                    </mxGeometry>
                </mxCell>
                <mxCell id="77" value="HandlerOut::Response" style="edgeLabel;html=1;align=center;verticalAlign=middle;resizable=0;points=[];" vertex="1" connectable="0" parent="76">
                    <mxGeometry x="-0.5875" y="-1" relative="1" as="geometry">
                        <mxPoint x="97" y="-11" as="offset"/>
                    </mxGeometry>
                </mxCell>
                <mxCell id="78" value="handle_rpc_response()" style="rounded=0;whiteSpace=wrap;html=1;" vertex="1" parent="1">
                    <mxGeometry x="340" y="1640" width="200" height="40" as="geometry"/>
                </mxCell>
                <mxCell id="79" value="discovered()&lt;br&gt;&lt;br&gt;・self.queries(QueryPool)から&lt;br&gt;該当Queryを取得&lt;br&gt;&lt;br&gt;・Queryの untrusted_enrs に&lt;br&gt;レスポンスのノードを追加する&lt;br&gt;&lt;br&gt;・Queryの on_success() を呼び出す" style="rounded=0;whiteSpace=wrap;html=1;" vertex="1" parent="1">
                    <mxGeometry x="340" y="1720" width="200" height="250" as="geometry"/>
                </mxCell>
                <mxCell id="81" value="" style="endArrow=classic;html=1;exitX=1.015;exitY=0.806;exitDx=0;exitDy=0;exitPerimeter=0;" edge="1" parent="1" source="79">
                    <mxGeometry width="50" height="50" relative="1" as="geometry">
                        <mxPoint x="606.95" y="1731.04" as="sourcePoint"/>
                        <mxPoint x="1000" y="1920" as="targetPoint"/>
                    </mxGeometry>
                </mxCell>
                <mxCell id="82" value="on_success()" style="edgeLabel;html=1;align=center;verticalAlign=middle;resizable=0;points=[];" vertex="1" connectable="0" parent="81">
                    <mxGeometry x="-0.5875" y="-1" relative="1" as="geometry">
                        <mxPoint x="-26" y="-16" as="offset"/>
                    </mxGeometry>
                </mxCell>
                <mxCell id="83" value="FindNodeQuery" style="rounded=0;whiteSpace=wrap;html=1;" vertex="1" parent="1">
                    <mxGeometry x="1280" y="-40" width="160" height="41" as="geometry"/>
                </mxCell>
                <mxCell id="84" value="" style="endArrow=none;dashed=1;html=1;fontSize=12;entryX=0.5;entryY=1;entryDx=0;entryDy=0;" edge="1" parent="1" target="83">
                    <mxGeometry width="50" height="50" relative="1" as="geometry">
                        <mxPoint x="1360" y="2240" as="sourcePoint"/>
                        <mxPoint x="1570" y="11" as="targetPoint"/>
                    </mxGeometry>
                </mxCell>
                <mxCell id="73" value="handle_response()" style="rounded=0;whiteSpace=wrap;html=1;" vertex="1" parent="1">
                    <mxGeometry x="1457.5" y="1600" width="205" height="40" as="geometry"/>
                </mxCell>
                <mxCell id="85" value="" style="endArrow=none;dashed=1;html=1;fontSize=12;entryX=0.5;entryY=1;entryDx=0;entryDy=0;" edge="1" parent="1" target="73">
                    <mxGeometry width="50" height="50" relative="1" as="geometry">
                        <mxPoint x="1560" y="2020" as="sourcePoint"/>
                        <mxPoint x="1560" y="1" as="targetPoint"/>
                    </mxGeometry>
                </mxCell>
                <mxCell id="86" value="" style="endArrow=classic;html=1;exitX=1.015;exitY=0.806;exitDx=0;exitDy=0;exitPerimeter=0;" edge="1" parent="1">
                    <mxGeometry width="50" height="50" relative="1" as="geometry">
                        <mxPoint x="1000" y="1961.5" as="sourcePoint"/>
                        <mxPoint x="1360" y="1960" as="targetPoint"/>
                    </mxGeometry>
                </mxCell>
                <mxCell id="87" value="on_success()" style="edgeLabel;html=1;align=center;verticalAlign=middle;resizable=0;points=[];" vertex="1" connectable="0" parent="86">
                    <mxGeometry x="-0.5875" y="-1" relative="1" as="geometry">
                        <mxPoint x="-26" y="-16" as="offset"/>
                    </mxGeometry>
                </mxCell>
                <mxCell id="88" value="on_success()&lt;br&gt;&lt;br&gt;・レスポンスで返ってきたピアを&lt;br&gt;self.closest_peers に追加する&lt;br&gt;（当該 distance のエントリが無ければ）" style="rounded=0;whiteSpace=wrap;html=1;" vertex="1" parent="1">
                    <mxGeometry x="1240" y="1980" width="242.5" height="200" as="geometry"/>
                </mxCell>
                <mxCell id="89" value="query_event_poll()" style="rounded=0;whiteSpace=wrap;html=1;" vertex="1" parent="1">
                    <mxGeometry x="320" y="2240" width="240" height="320" as="geometry"/>
                </mxCell>
                <mxCell id="90" value="" style="endArrow=classic;html=1;" edge="1" parent="1">
                    <mxGeometry width="50" height="50" relative="1" as="geometry">
                        <mxPoint x="560" y="2259.4700000000003" as="sourcePoint"/>
                        <mxPoint x="840" y="2259" as="targetPoint"/>
                    </mxGeometry>
                </mxCell>
                <mxCell id="91" value="poll()" style="edgeLabel;html=1;align=center;verticalAlign=middle;resizable=0;points=[];" vertex="1" connectable="0" parent="90">
                    <mxGeometry x="-0.5875" y="-1" relative="1" as="geometry">
                        <mxPoint x="-32" y="-11" as="offset"/>
                    </mxGeometry>
                </mxCell>
                <mxCell id="92" value="" style="endArrow=classic;html=1;" edge="1" parent="1">
                    <mxGeometry width="50" height="50" relative="1" as="geometry">
                        <mxPoint x="840" y="2280" as="sourcePoint"/>
                        <mxPoint x="1000" y="2280" as="targetPoint"/>
                    </mxGeometry>
                </mxCell>
                <mxCell id="93" value="next()" style="edgeLabel;html=1;align=center;verticalAlign=middle;resizable=0;points=[];" vertex="1" connectable="0" parent="92">
                    <mxGeometry x="-0.5875" y="-1" relative="1" as="geometry">
                        <mxPoint x="-13" y="-11" as="offset"/>
                    </mxGeometry>
                </mxCell>
                <mxCell id="94" value="" style="endArrow=classic;html=1;" edge="1" parent="1">
                    <mxGeometry width="50" height="50" relative="1" as="geometry">
                        <mxPoint x="1000" y="2320" as="sourcePoint"/>
                        <mxPoint x="1160" y="2320" as="targetPoint"/>
                    </mxGeometry>
                </mxCell>
                <mxCell id="95" value="next()" style="edgeLabel;html=1;align=center;verticalAlign=middle;resizable=0;points=[];" vertex="1" connectable="0" parent="94">
                    <mxGeometry x="-0.5875" y="-1" relative="1" as="geometry">
                        <mxPoint x="-13" y="-11" as="offset"/>
                    </mxGeometry>
                </mxCell>
                <mxCell id="96" value="NODESレスポンスで返ってきた&lt;br&gt;ピアのノードIDを返す" style="rounded=0;whiteSpace=wrap;html=1;fontColor=#80FF00;" vertex="1" parent="1">
                    <mxGeometry x="1065" y="2360" width="190" height="60" as="geometry"/>
                </mxCell>
                <mxCell id="97" value="" style="endArrow=none;dashed=1;html=1;fontSize=12;entryX=0.5;entryY=1;entryDx=0;entryDy=0;" edge="1" parent="1" target="96">
                    <mxGeometry width="50" height="50" relative="1" as="geometry">
                        <mxPoint x="1160" y="2520" as="sourcePoint"/>
                        <mxPoint x="1160" y="1" as="targetPoint"/>
                    </mxGeometry>
                </mxCell>
                <mxCell id="98" value="" style="endArrow=classic;html=1;" edge="1" parent="1">
                    <mxGeometry width="50" height="50" relative="1" as="geometry">
                        <mxPoint x="1160" y="2460" as="sourcePoint"/>
                        <mxPoint x="1000" y="2460" as="targetPoint"/>
                    </mxGeometry>
                </mxCell>
                <mxCell id="99" value="QueryState::Waiting(NodeId)" style="edgeLabel;html=1;align=center;verticalAlign=middle;resizable=0;points=[];" vertex="1" connectable="0" parent="98">
                    <mxGeometry x="-0.5875" y="-1" relative="1" as="geometry">
                        <mxPoint x="-37" y="-11" as="offset"/>
                    </mxGeometry>
                </mxCell>
                <mxCell id="100" value="&lt;font color=&quot;#f0f0f0&quot;&gt;distance次第だが、&lt;br&gt;known_closest_peers ではなく&lt;br&gt;NODESレスポンスのピアを返す可能性がある&lt;br&gt;&lt;/font&gt;" style="shape=note;whiteSpace=wrap;html=1;backgroundOutline=1;darkOpacity=0.05;fontColor=#80FF00;" vertex="1" parent="1">
                    <mxGeometry x="1270" y="2340" width="290" height="110" as="geometry"/>
                </mxCell>
                <mxCell id="101" value="" style="endArrow=classic;html=1;" edge="1" parent="1">
                    <mxGeometry width="50" height="50" relative="1" as="geometry">
                        <mxPoint x="1000" y="2480" as="sourcePoint"/>
                        <mxPoint x="840" y="2480" as="targetPoint"/>
                    </mxGeometry>
                </mxCell>
                <mxCell id="102" value="(そのまま返す)" style="edgeLabel;html=1;align=center;verticalAlign=middle;resizable=0;points=[];" vertex="1" connectable="0" parent="101">
                    <mxGeometry x="-0.5875" y="-1" relative="1" as="geometry">
                        <mxPoint x="-17" y="-11" as="offset"/>
                    </mxGeometry>
                </mxCell>
                <mxCell id="103" value="" style="endArrow=classic;html=1;entryX=1.019;entryY=0.888;entryDx=0;entryDy=0;entryPerimeter=0;" edge="1" parent="1">
                    <mxGeometry width="50" height="50" relative="1" as="geometry">
                        <mxPoint x="840" y="2520" as="sourcePoint"/>
                        <mxPoint x="560" y="2520" as="targetPoint"/>
                    </mxGeometry>
                </mxCell>
                <mxCell id="104" value="QueryPoolState::Waiting(Query, NodeId)" style="edgeLabel;html=1;align=center;verticalAlign=middle;resizable=0;points=[];" vertex="1" connectable="0" parent="103">
                    <mxGeometry x="-0.5875" y="-1" relative="1" as="geometry">
                        <mxPoint x="-42" y="-11" as="offset"/>
                    </mxGeometry>
                </mxCell>
                <mxCell id="105" value="ここから先は、前述と同様に&lt;br&gt;send_rpc_query()&amp;nbsp;&lt;br&gt;を実行してリクエストを送信する&lt;br&gt;&lt;br&gt;その際、（前述の通り）当該ピアとセッションを確立したタイミングで&lt;br&gt;inject_session_established()&lt;br&gt;が呼ばれる" style="rounded=0;whiteSpace=wrap;html=1;dashed=1;" vertex="1" parent="1">
                    <mxGeometry x="280" y="2600" width="320" height="160" as="geometry"/>
                </mxCell>
                <mxCell id="106" value="" style="endArrow=classic;html=1;exitX=1.015;exitY=0.338;exitDx=0;exitDy=0;exitPerimeter=0;" edge="1" parent="1">
                    <mxGeometry width="50" height="50" relative="1" as="geometry">
                        <mxPoint x="529.9999999999999" y="2960.0000000000005" as="sourcePoint"/>
                        <mxPoint x="640" y="2960" as="targetPoint"/>
                    </mxGeometry>
                </mxCell>
                <mxCell id="107" value="insert_or_update()" style="edgeLabel;html=1;align=center;verticalAlign=middle;resizable=0;points=[];fontColor=#80FF00;" vertex="1" connectable="0" parent="106">
                    <mxGeometry x="-0.5875" y="-1" relative="1" as="geometry">
                        <mxPoint x="27" y="-11" as="offset"/>
                    </mxGeometry>
                </mxCell>
                <mxCell id="108" value="inject_session_established()" style="rounded=0;whiteSpace=wrap;html=1;" vertex="1" parent="1">
                    <mxGeometry x="345" y="2800" width="200" height="40" as="geometry"/>
                </mxCell>
                <mxCell id="109" value="connection_updated()&lt;br&gt;&lt;br&gt;k-bucketsに&lt;br&gt;セッションを開始したノードを&lt;br&gt;追加する" style="rounded=0;whiteSpace=wrap;html=1;fontColor=#80FF00;" vertex="1" parent="1">
                    <mxGeometry x="340" y="2880" width="190" height="120" as="geometry"/>
                </mxCell>
                <mxCell id="110" value="NODESレスポンスで返ってきたノードが&lt;br&gt;k-buckets に追加される&lt;br&gt;&lt;br&gt;こちらからセッションを開始しているので&lt;br&gt;outbound として追加される" style="shape=note;whiteSpace=wrap;html=1;backgroundOutline=1;darkOpacity=0.05;fontColor=#80FF00;" vertex="1" parent="1">
                    <mxGeometry x="-30" y="2865" width="340" height="150" as="geometry"/>
                </mxCell>
                <mxCell id="111" value="NODESレスポンスで受信したノードを&lt;br&gt;k-buckets に追加する流れ" style="shape=note;whiteSpace=wrap;html=1;backgroundOutline=1;darkOpacity=0.05;dashed=1;fontColor=#F0F0F0;fontStyle=1" vertex="1" parent="1">
                    <mxGeometry x="-300" y="-240" width="340" height="110" as="geometry"/>
                </mxCell>
            </root>
        </mxGraphModel>
    </diagram>
</mxfile>